<svg width="256" height="43" viewBox="0 0 256 43" fill="none" xmlns="http://www.w3.org/2000/svg">
<path d="M22.3466 21.5736C24.5662 21.9877 26.3908 23.0984 27.8204 24.9056C29.25 26.7128 29.9648 28.7836 29.9648 31.1179C29.9648 33.2263 29.4381 35.09 28.3847 36.7089C27.369 38.2903 25.883 39.5327 23.9267 40.4363C21.9704 41.3399 19.6568 41.7917 16.9857 41.7917H0V2.37196H16.2521C18.9232 2.37196 21.218 2.80494 23.1367 3.67089C25.0929 4.53685 26.5601 5.74166 27.5383 7.28531C28.554 8.82897 29.0619 10.5797 29.0619 12.5375C29.0619 14.8342 28.4412 16.7543 27.1997 18.298C25.9958 19.8417 24.3781 20.9335 22.3466 21.5736ZM7.90032 18.6368H15.1235C17.0045 18.6368 18.4529 18.2227 19.4687 17.3944C20.4844 16.5284 20.9923 15.3048 20.9923 13.7235C20.9923 12.1422 20.4844 10.9186 19.4687 10.0526C18.4529 9.18665 17.0045 8.75367 15.1235 8.75367H7.90032V18.6368ZM15.8571 35.3535C17.7757 35.3535 19.2617 34.9017 20.3151 33.9981C21.4061 33.0945 21.9516 31.8144 21.9516 30.1578C21.9516 28.4636 21.3873 27.1458 20.2587 26.2045C19.1301 25.2256 17.6064 24.7362 15.6878 24.7362H7.90032V35.3535H15.8571Z" fill="#0458D6"/>
<path d="M22.3466 21.5736C24.5662 21.9877 26.3908 23.0984 27.8204 24.9056C29.25 26.7128 29.9648 28.7836 29.9648 31.1179C29.9648 33.2263 29.4381 35.09 28.3847 36.7089C27.369 38.2903 25.883 39.5327 23.9267 40.4363C21.9704 41.3399 19.6568 41.7917 16.9857 41.7917H0V2.37196H16.2521C18.9232 2.37196 21.218 2.80494 23.1367 3.67089C25.0929 4.53685 26.5601 5.74166 27.5383 7.28531C28.554 8.82897 29.0619 10.5797 29.0619 12.5375C29.0619 14.8342 28.4412 16.7543 27.1997 18.298C25.9958 19.8417 24.3781 20.9335 22.3466 21.5736ZM7.90032 18.6368H15.1235C17.0045 18.6368 18.4529 18.2227 19.4687 17.3944C20.4844 16.5284 20.9923 15.3048 20.9923 13.7235C20.9923 12.1422 20.4844 10.9186 19.4687 10.0526C18.4529 9.18665 17.0045 8.75367 15.1235 8.75367H7.90032V18.6368ZM15.8571 35.3535C17.7757 35.3535 19.2617 34.9017 20.3151 33.9981C21.4061 33.0945 21.9516 31.8144 21.9516 30.1578C21.9516 28.4636 21.3873 27.1458 20.2587 26.2045C19.1301 25.2256 17.6064 24.7362 15.6878 24.7362H7.90032V35.3535H15.8571Z" fill="url(#paint0_linear_780_3316)"/>
<path d="M45.6288 42.3C42.6191 42.3 39.9104 41.6411 37.5027 40.3234C35.095 38.968 33.1952 37.0666 31.8032 34.6194C30.4489 32.1721 29.7717 29.3483 29.7717 26.1481C29.7717 22.9478 30.4677 20.124 31.8596 17.6768C33.2892 15.2295 35.2267 13.347 37.672 12.0292C40.1174 10.6738 42.8449 9.99613 45.8545 9.99613C48.8642 9.99613 51.5916 10.6738 54.037 12.0292C56.4823 13.347 58.401 15.2295 59.7929 17.6768C61.2225 20.124 61.9373 22.9478 61.9373 26.1481C61.9373 29.3483 61.2037 32.1721 59.7365 34.6194C58.3069 37.0666 56.3507 38.968 53.8677 40.3234C51.4224 41.6411 48.676 42.3 45.6288 42.3ZM45.6288 35.41C47.0584 35.41 48.3939 35.0712 49.6354 34.3935C50.9145 33.6781 51.9302 32.6239 52.6826 31.2308C53.4351 29.8378 53.8113 28.1435 53.8113 26.1481C53.8113 23.1737 53.0212 20.8959 51.4412 19.3146C49.8987 17.6956 47.9989 16.8861 45.7416 16.8861C43.4844 16.8861 41.5846 17.6956 40.0421 19.3146C38.5373 20.8959 37.7849 23.1737 37.7849 26.1481C37.7849 29.1224 38.5185 31.4191 39.9857 33.0381C41.4905 34.6194 43.3715 35.41 45.6288 35.41Z" fill="#0458D6"/>
<path d="M45.6288 42.3C42.6191 42.3 39.9104 41.6411 37.5027 40.3234C35.095 38.968 33.1952 37.0666 31.8032 34.6194C30.4489 32.1721 29.7717 29.3483 29.7717 26.1481C29.7717 22.9478 30.4677 20.124 31.8596 17.6768C33.2892 15.2295 35.2267 13.347 37.672 12.0292C40.1174 10.6738 42.8449 9.99613 45.8545 9.99613C48.8642 9.99613 51.5916 10.6738 54.037 12.0292C56.4823 13.347 58.401 15.2295 59.7929 17.6768C61.2225 20.124 61.9373 22.9478 61.9373 26.1481C61.9373 29.3483 61.2037 32.1721 59.7365 34.6194C58.3069 37.0666 56.3507 38.968 53.8677 40.3234C51.4224 41.6411 48.676 42.3 45.6288 42.3ZM45.6288 35.41C47.0584 35.41 48.3939 35.0712 49.6354 34.3935C50.9145 33.6781 51.9302 32.6239 52.6826 31.2308C53.4351 29.8378 53.8113 28.1435 53.8113 26.1481C53.8113 23.1737 53.0212 20.8959 51.4412 19.3146C49.8987 17.6956 47.9989 16.8861 45.7416 16.8861C43.4844 16.8861 41.5846 17.6956 40.0421 19.3146C38.5373 20.8959 37.7849 23.1737 37.7849 26.1481C37.7849 29.1224 38.5185 31.4191 39.9857 33.0381C41.4905 34.6194 43.3715 35.41 45.6288 35.41Z" fill="url(#paint1_linear_780_3316)"/>
<path d="M71.1183 15.3613C72.1341 13.7047 73.4508 12.4057 75.0685 11.4645C76.7238 10.5232 78.6049 10.0526 80.7116 10.0526V18.3545H78.6237C76.1407 18.3545 74.2597 18.938 72.9806 20.1052C71.7391 21.2724 71.1183 23.3055 71.1183 26.2045V41.7917H63.218V10.5044H71.1183V15.3613Z" fill="#0458D6"/>
<path d="M71.1183 15.3613C72.1341 13.7047 73.4508 12.4057 75.0685 11.4645C76.7238 10.5232 78.6049 10.0526 80.7116 10.0526V18.3545H78.6237C76.1407 18.3545 74.2597 18.938 72.9806 20.1052C71.7391 21.2724 71.1183 23.3055 71.1183 26.2045V41.7917H63.218V10.5044H71.1183V15.3613Z" fill="url(#paint2_linear_780_3316)"/>
<path d="M79.4869 26.0351C79.4869 22.8725 80.1076 20.0676 81.3491 17.6203C82.6282 15.173 84.3587 13.2905 86.5407 11.9728C88.7227 10.655 91.1493 9.99613 93.8203 9.99613C95.8518 9.99613 97.7893 10.4479 99.6327 11.3515C101.476 12.2175 102.943 13.3846 104.034 14.853V0H112.047V41.7917H104.034V37.1607C103.056 38.7044 101.683 39.9469 99.9149 40.8881C98.1467 41.8294 96.0964 42.3 93.7639 42.3C91.1304 42.3 88.7227 41.6223 86.5407 40.2669C84.3587 38.9115 82.6282 37.0101 81.3491 34.5629C80.1076 32.078 79.4869 29.2354 79.4869 26.0351ZM104.091 26.1481C104.091 24.2279 103.715 22.5901 102.962 21.2347C102.21 19.8417 101.194 18.7874 99.9149 18.0721C98.6358 17.3191 97.2626 16.9426 95.7954 16.9426C94.3282 16.9426 92.9739 17.3003 91.7324 18.0156C90.4909 18.731 89.4751 19.7852 88.6851 21.1782C87.9327 22.5336 87.5565 24.1526 87.5565 26.0351C87.5565 27.9176 87.9327 29.5742 88.6851 31.0049C89.4751 32.398 90.4909 33.471 91.7324 34.224C93.0115 34.977 94.3658 35.3535 95.7954 35.3535C97.2626 35.3535 98.6358 34.9959 99.9149 34.2805C101.194 33.5275 102.21 32.4733 102.962 31.1179C103.715 29.7248 104.091 28.0682 104.091 26.1481Z" fill="#0458D6"/>
<path d="M79.4869 26.0351C79.4869 22.8725 80.1076 20.0676 81.3491 17.6203C82.6282 15.173 84.3587 13.2905 86.5407 11.9728C88.7227 10.655 91.1493 9.99613 93.8203 9.99613C95.8518 9.99613 97.7893 10.4479 99.6327 11.3515C101.476 12.2175 102.943 13.3846 104.034 14.853V0H112.047V41.7917H104.034V37.1607C103.056 38.7044 101.683 39.9469 99.9149 40.8881C98.1467 41.8294 96.0964 42.3 93.7639 42.3C91.1304 42.3 88.7227 41.6223 86.5407 40.2669C84.3587 38.9115 82.6282 37.0101 81.3491 34.5629C80.1076 32.078 79.4869 29.2354 79.4869 26.0351ZM104.091 26.1481C104.091 24.2279 103.715 22.5901 102.962 21.2347C102.21 19.8417 101.194 18.7874 99.9149 18.0721C98.6358 17.3191 97.2626 16.9426 95.7954 16.9426C94.3282 16.9426 92.9739 17.3003 91.7324 18.0156C90.4909 18.731 89.4751 19.7852 88.6851 21.1782C87.9327 22.5336 87.5565 24.1526 87.5565 26.0351C87.5565 27.9176 87.9327 29.5742 88.6851 31.0049C89.4751 32.398 90.4909 33.471 91.7324 34.224C93.0115 34.977 94.3658 35.3535 95.7954 35.3535C97.2626 35.3535 98.6358 34.9959 99.9149 34.2805C101.194 33.5275 102.21 32.4733 102.962 31.1179C103.715 29.7248 104.091 28.0682 104.091 26.1481Z" fill="url(#paint3_linear_780_3316)"/>
<path d="M144.311 25.4704C144.311 26.5999 144.236 27.6164 144.085 28.52H121.231C121.419 30.779 122.209 32.5486 123.601 33.8287C124.993 35.1088 126.705 35.7489 128.736 35.7489C131.67 35.7489 133.758 34.4876 135 31.965H143.521C142.618 34.977 140.887 37.4619 138.329 39.4198C135.771 41.3399 132.63 42.3 128.905 42.3C125.896 42.3 123.187 41.6411 120.779 40.3234C118.409 38.968 116.547 37.0666 115.193 34.6194C113.876 32.1721 113.218 29.3483 113.218 26.1481C113.218 22.9101 113.876 20.0676 115.193 17.6203C116.509 15.173 118.353 13.2905 120.723 11.9728C123.093 10.655 125.82 9.99613 128.905 9.99613C131.877 9.99613 134.53 10.6362 136.862 11.9163C139.232 13.1964 141.057 15.0224 142.336 17.3944C143.653 19.7287 144.311 22.4207 144.311 25.4704ZM136.128 23.2113C136.091 21.1782 135.357 19.5593 133.928 18.3545C132.498 17.112 130.749 16.4908 128.68 16.4908C126.723 16.4908 125.068 17.0932 123.714 18.298C122.397 19.4652 121.588 21.1029 121.287 23.2113H136.128Z" fill="#0458D6"/>
<path d="M144.311 25.4704C144.311 26.5999 144.236 27.6164 144.085 28.52H121.231C121.419 30.779 122.209 32.5486 123.601 33.8287C124.993 35.1088 126.705 35.7489 128.736 35.7489C131.67 35.7489 133.758 34.4876 135 31.965H143.521C142.618 34.977 140.887 37.4619 138.329 39.4198C135.771 41.3399 132.63 42.3 128.905 42.3C125.896 42.3 123.187 41.6411 120.779 40.3234C118.409 38.968 116.547 37.0666 115.193 34.6194C113.876 32.1721 113.218 29.3483 113.218 26.1481C113.218 22.9101 113.876 20.0676 115.193 17.6203C116.509 15.173 118.353 13.2905 120.723 11.9728C123.093 10.655 125.82 9.99613 128.905 9.99613C131.877 9.99613 134.53 10.6362 136.862 11.9163C139.232 13.1964 141.057 15.0224 142.336 17.3944C143.653 19.7287 144.311 22.4207 144.311 25.4704ZM136.128 23.2113C136.091 21.1782 135.357 19.5593 133.928 18.3545C132.498 17.112 130.749 16.4908 128.68 16.4908C126.723 16.4908 125.068 17.0932 123.714 18.298C122.397 19.4652 121.588 21.1029 121.287 23.2113H136.128Z" fill="url(#paint4_linear_780_3316)"/>
<path d="M153.463 15.3613C154.479 13.7047 155.796 12.4057 157.414 11.4645C159.069 10.5232 160.95 10.0526 163.057 10.0526V18.3545H160.969C158.486 18.3545 156.605 18.938 155.326 20.1052C154.084 21.2724 153.463 23.3055 153.463 26.2045V41.7917H145.563V10.5044H153.463V15.3613Z" fill="#0458D6"/>
<path d="M153.463 15.3613C154.479 13.7047 155.796 12.4057 157.414 11.4645C159.069 10.5232 160.95 10.0526 163.057 10.0526V18.3545H160.969C158.486 18.3545 156.605 18.938 155.326 20.1052C154.084 21.2724 153.463 23.3055 153.463 26.2045V41.7917H145.563V10.5044H153.463V15.3613Z" fill="url(#paint5_linear_780_3316)"/>
<path d="M171.764 0V41.7917H163.863V0H171.764Z" fill="#0458D6"/>
<path d="M171.764 0V41.7917H163.863V0H171.764Z" fill="url(#paint6_linear_780_3316)"/>
<path d="M204.117 25.4704C204.117 26.5999 204.041 27.6164 203.891 28.52H181.036C181.225 30.779 182.015 32.5486 183.407 33.8287C184.799 35.1088 186.51 35.7489 188.542 35.7489C191.476 35.7489 193.564 34.4876 194.806 31.965H203.327C202.424 34.977 200.693 37.4619 198.135 39.4198C195.577 41.3399 192.436 42.3 188.711 42.3C185.701 42.3 182.993 41.6411 180.585 40.3234C178.215 38.968 176.353 37.0666 174.998 34.6194C173.682 32.1721 173.023 29.3483 173.023 26.1481C173.023 22.9101 173.682 20.0676 174.998 17.6203C176.315 15.173 178.158 13.2905 180.529 11.9728C182.899 10.655 185.626 9.99613 188.711 9.99613C191.683 9.99613 194.335 10.6362 196.668 11.9163C199.038 13.1964 200.863 15.0224 202.142 17.3944C203.458 19.7287 204.117 22.4207 204.117 25.4704ZM195.934 23.2113C195.897 21.1782 195.163 19.5593 193.733 18.3545C192.304 17.112 190.554 16.4908 188.485 16.4908C186.529 16.4908 184.874 17.0932 183.519 18.298C182.203 19.4652 181.394 21.1029 181.093 23.2113H195.934Z" fill="#0458D6"/>
<path d="M204.117 25.4704C204.117 26.5999 204.041 27.6164 203.891 28.52H181.036C181.225 30.779 182.015 32.5486 183.407 33.8287C184.799 35.1088 186.51 35.7489 188.542 35.7489C191.476 35.7489 193.564 34.4876 194.806 31.965H203.327C202.424 34.977 200.693 37.4619 198.135 39.4198C195.577 41.3399 192.436 42.3 188.711 42.3C185.701 42.3 182.993 41.6411 180.585 40.3234C178.215 38.968 176.353 37.0666 174.998 34.6194C173.682 32.1721 173.023 29.3483 173.023 26.1481C173.023 22.9101 173.682 20.0676 174.998 17.6203C176.315 15.173 178.158 13.2905 180.529 11.9728C182.899 10.655 185.626 9.99613 188.711 9.99613C191.683 9.99613 194.335 10.6362 196.668 11.9163C199.038 13.1964 200.863 15.0224 202.142 17.3944C203.458 19.7287 204.117 22.4207 204.117 25.4704ZM195.934 23.2113C195.897 21.1782 195.163 19.5593 193.733 18.3545C192.304 17.112 190.554 16.4908 188.485 16.4908C186.529 16.4908 184.874 17.0932 183.519 18.298C182.203 19.4652 181.394 21.1029 181.093 23.2113H195.934Z" fill="url(#paint7_linear_780_3316)"/>
<path d="M217.332 42.3C214.774 42.3 212.479 41.8482 210.448 40.9446C208.416 40.0033 206.798 38.7421 205.594 37.1607C204.428 35.5794 203.789 33.8287 203.676 31.9085H211.633C211.783 33.1133 212.366 34.1111 213.382 34.9017C214.435 35.6924 215.733 36.0877 217.276 36.0877C218.78 36.0877 219.947 35.7865 220.774 35.1841C221.64 34.5817 222.072 33.8099 222.072 32.8686C222.072 31.8521 221.546 31.0991 220.492 30.6096C219.476 30.0825 217.84 29.5178 215.583 28.9154C213.25 28.3506 211.332 27.767 209.827 27.1646C208.36 26.5622 207.08 25.6398 205.99 24.3973C204.936 23.1549 204.409 21.4794 204.409 19.371C204.409 17.6391 204.898 16.0578 205.877 14.6271C206.892 13.1964 208.322 12.0669 210.165 11.2386C212.046 10.4103 214.247 9.99613 216.768 9.99613C220.492 9.99613 223.464 10.9374 225.684 12.8199C227.903 14.6648 229.126 17.1685 229.352 20.3311H221.79C221.677 19.0886 221.151 18.1097 220.21 17.3944C219.307 16.6414 218.085 16.2649 216.542 16.2649C215.112 16.2649 214.003 16.5284 213.213 17.0555C212.46 17.5826 212.084 18.3168 212.084 19.2581C212.084 20.3123 212.611 21.1218 213.664 21.6865C214.717 22.2136 216.354 22.7595 218.574 23.3243C220.831 23.8891 222.693 24.4726 224.16 25.075C225.627 25.6774 226.888 26.6187 227.941 27.8988C229.032 29.1413 229.596 30.7979 229.634 32.8686C229.634 34.6758 229.126 36.2948 228.11 37.7255C227.132 39.1562 225.703 40.2857 223.822 41.114C221.978 41.9047 219.815 42.3 217.332 42.3Z" fill="#0458D6"/>
<path d="M217.332 42.3C214.774 42.3 212.479 41.8482 210.448 40.9446C208.416 40.0033 206.798 38.7421 205.594 37.1607C204.428 35.5794 203.789 33.8287 203.676 31.9085H211.633C211.783 33.1133 212.366 34.1111 213.382 34.9017C214.435 35.6924 215.733 36.0877 217.276 36.0877C218.78 36.0877 219.947 35.7865 220.774 35.1841C221.64 34.5817 222.072 33.8099 222.072 32.8686C222.072 31.8521 221.546 31.0991 220.492 30.6096C219.476 30.0825 217.84 29.5178 215.583 28.9154C213.25 28.3506 211.332 27.767 209.827 27.1646C208.36 26.5622 207.08 25.6398 205.99 24.3973C204.936 23.1549 204.409 21.4794 204.409 19.371C204.409 17.6391 204.898 16.0578 205.877 14.6271C206.892 13.1964 208.322 12.0669 210.165 11.2386C212.046 10.4103 214.247 9.99613 216.768 9.99613C220.492 9.99613 223.464 10.9374 225.684 12.8199C227.903 14.6648 229.126 17.1685 229.352 20.3311H221.79C221.677 19.0886 221.151 18.1097 220.21 17.3944C219.307 16.6414 218.085 16.2649 216.542 16.2649C215.112 16.2649 214.003 16.5284 213.213 17.0555C212.46 17.5826 212.084 18.3168 212.084 19.2581C212.084 20.3123 212.611 21.1218 213.664 21.6865C214.717 22.2136 216.354 22.7595 218.574 23.3243C220.831 23.8891 222.693 24.4726 224.16 25.075C225.627 25.6774 226.888 26.6187 227.941 27.8988C229.032 29.1413 229.596 30.7979 229.634 32.8686C229.634 34.6758 229.126 36.2948 228.11 37.7255C227.132 39.1562 225.703 40.2857 223.822 41.114C221.978 41.9047 219.815 42.3 217.332 42.3Z" fill="url(#paint8_linear_780_3316)"/>
<path d="M243.568 42.3C241.01 42.3 238.715 41.8482 236.684 40.9446C234.652 40.0033 233.034 38.7421 231.83 37.1607C230.664 35.5794 230.025 33.8287 229.912 31.9085H237.869C238.019 33.1133 238.602 34.1111 239.618 34.9017C240.671 35.6924 241.969 36.0877 243.512 36.0877C245.016 36.0877 246.183 35.7865 247.01 35.1841C247.876 34.5817 248.308 33.8099 248.308 32.8686C248.308 31.8521 247.782 31.0991 246.728 30.6096C245.712 30.0825 244.076 29.5178 241.819 28.9154C239.486 28.3506 237.568 27.767 236.063 27.1646C234.596 26.5622 233.316 25.6398 232.225 24.3973C231.172 23.1549 230.645 21.4794 230.645 19.371C230.645 17.6391 231.134 16.0578 232.113 14.6271C233.128 13.1964 234.558 12.0669 236.401 11.2386C238.282 10.4103 240.483 9.99613 243.004 9.99613C246.728 9.99613 249.7 10.9374 251.92 12.8199C254.139 14.6648 255.362 17.1685 255.588 20.3311H248.026C247.913 19.0886 247.387 18.1097 246.446 17.3944C245.543 16.6414 244.32 16.2649 242.778 16.2649C241.348 16.2649 240.239 16.5284 239.449 17.0555C238.696 17.5826 238.32 18.3168 238.32 19.2581C238.32 20.3123 238.847 21.1218 239.9 21.6865C240.953 22.2136 242.59 22.7595 244.81 23.3243C247.067 23.8891 248.929 24.4726 250.396 25.075C251.863 25.6774 253.124 26.6187 254.177 27.8988C255.268 29.1413 255.832 30.7979 255.87 32.8686C255.87 34.6758 255.362 36.2948 254.346 37.7255C253.368 39.1562 251.939 40.2857 250.058 41.114C248.214 41.9047 246.051 42.3 243.568 42.3Z" fill="#0458D6"/>
<path d="M243.568 42.3C241.01 42.3 238.715 41.8482 236.684 40.9446C234.652 40.0033 233.034 38.7421 231.83 37.1607C230.664 35.5794 230.025 33.8287 229.912 31.9085H237.869C238.019 33.1133 238.602 34.1111 239.618 34.9017C240.671 35.6924 241.969 36.0877 243.512 36.0877C245.016 36.0877 246.183 35.7865 247.01 35.1841C247.876 34.5817 248.308 33.8099 248.308 32.8686C248.308 31.8521 247.782 31.0991 246.728 30.6096C245.712 30.0825 244.076 29.5178 241.819 28.9154C239.486 28.3506 237.568 27.767 236.063 27.1646C234.596 26.5622 233.316 25.6398 232.225 24.3973C231.172 23.1549 230.645 21.4794 230.645 19.371C230.645 17.6391 231.134 16.0578 232.113 14.6271C233.128 13.1964 234.558 12.0669 236.401 11.2386C238.282 10.4103 240.483 9.99613 243.004 9.99613C246.728 9.99613 249.7 10.9374 251.92 12.8199C254.139 14.6648 255.362 17.1685 255.588 20.3311H248.026C247.913 19.0886 247.387 18.1097 246.446 17.3944C245.543 16.6414 244.32 16.2649 242.778 16.2649C241.348 16.2649 240.239 16.5284 239.449 17.0555C238.696 17.5826 238.32 18.3168 238.32 19.2581C238.32 20.3123 238.847 21.1218 239.9 21.6865C240.953 22.2136 242.59 22.7595 244.81 23.3243C247.067 23.8891 248.929 24.4726 250.396 25.075C251.863 25.6774 253.124 26.6187 254.177 27.8988C255.268 29.1413 255.832 30.7979 255.87 32.8686C255.87 34.6758 255.362 36.2948 254.346 37.7255C253.368 39.1562 251.939 40.2857 250.058 41.114C248.214 41.9047 246.051 42.3 243.568 42.3Z" fill="url(#paint9_linear_780_3316)"/>
<defs>
<linearGradient id="paint0_linear_780_3316" x1="263.163" y1="21.3566" x2="56.2035" y2="-64.2674" gradientUnits="userSpaceOnUse">
<stop stop-color="#469E99"/>
<stop offset="0.628864" stop-color="#0458D6" stop-opacity="0.75"/>
<stop offset="1" stop-color="#0458D6"/>
</linearGradient>
<linearGradient id="paint1_linear_780_3316" x1="263.163" y1="21.3566" x2="56.2035" y2="-64.2674" gradientUnits="userSpaceOnUse">
<stop stop-color="#469E99"/>
<stop offset="0.628864" stop-color="#0458D6" stop-opacity="0.75"/>
<stop offset="1" stop-color="#0458D6"/>
</linearGradient>
<linearGradient id="paint2_linear_780_3316" x1="263.163" y1="21.3566" x2="56.2035" y2="-64.2674" gradientUnits="userSpaceOnUse">
<stop stop-color="#469E99"/>
<stop offset="0.628864" stop-color="#0458D6" stop-opacity="0.75"/>
<stop offset="1" stop-color="#0458D6"/>
</linearGradient>
<linearGradient id="paint3_linear_780_3316" x1="263.163" y1="21.3566" x2="56.2035" y2="-64.2674" gradientUnits="userSpaceOnUse">
<stop stop-color="#469E99"/>
<stop offset="0.628864" stop-color="#0458D6" stop-opacity="0.75"/>
<stop offset="1" stop-color="#0458D6"/>
</linearGradient>
<linearGradient id="paint4_linear_780_3316" x1="263.163" y1="21.3566" x2="56.2035" y2="-64.2674" gradientUnits="userSpaceOnUse">
<stop stop-color="#469E99"/>
<stop offset="0.628864" stop-color="#0458D6" stop-opacity="0.75"/>
<stop offset="1" stop-color="#0458D6"/>
</linearGradient>
<linearGradient id="paint5_linear_780_3316" x1="263.163" y1="21.3566" x2="56.2035" y2="-64.2674" gradientUnits="userSpaceOnUse">
<stop stop-color="#469E99"/>
<stop offset="0.628864" stop-color="#0458D6" stop-opacity="0.75"/>
<stop offset="1" stop-color="#0458D6"/>
</linearGradient>
<linearGradient id="paint6_linear_780_3316" x1="263.163" y1="21.3566" x2="56.2035" y2="-64.2674" gradientUnits="userSpaceOnUse">
<stop stop-color="#469E99"/>
<stop offset="0.628864" stop-color="#0458D6" stop-opacity="0.75"/>
<stop offset="1" stop-color="#0458D6"/>
</linearGradient>
<linearGradient id="paint7_linear_780_3316" x1="263.163" y1="21.3566" x2="56.2035" y2="-64.2674" gradientUnits="userSpaceOnUse">
<stop stop-color="#469E99"/>
<stop offset="0.628864" stop-color="#0458D6" stop-opacity="0.75"/>
<stop offset="1" stop-color="#0458D6"/>
</linearGradient>
<linearGradient id="paint8_linear_780_3316" x1="263.163" y1="21.3566" x2="56.2035" y2="-64.2674" gradientUnits="userSpaceOnUse">
<stop stop-color="#469E99"/>
<stop offset="0.628864" stop-color="#0458D6" stop-opacity="0.75"/>
<stop offset="1" stop-color="#0458D6"/>
</linearGradient>
<linearGradient id="paint9_linear_780_3316" x1="263.163" y1="21.3566" x2="56.2035" y2="-64.2674" gradientUnits="userSpaceOnUse">
<stop stop-color="#469E99"/>
<stop offset="0.628864" stop-color="#0458D6" stop-opacity="0.75"/>
<stop offset="1" stop-color="#0458D6"/>
</linearGradient>
</defs>
</svg>
